<svg width="27" height="27" viewBox="0 0 27 27" fill="none" xmlns="http://www.w3.org/2000/svg">
<path d="M18.5625 8.4375V10.9688C18.5625 11.1925 18.4736 11.4071 18.3154 11.5654C18.1571 11.7236 17.9425 11.8125 17.7188 11.8125H16.875V8.4375H10.125V11.8125H9.28125C9.05747 11.8125 8.84286 11.7236 8.68463 11.5654C8.52639 11.4071 8.4375 11.1925 8.4375 10.9688V8.4375H5.0625V23.625H21.9375V8.4375H18.5625ZM8.4375 6.75C8.4375 5.40734 8.97087 4.11967 9.92027 3.17027C10.8697 2.22087 12.1573 1.6875 13.5 1.6875C14.8427 1.6875 16.1303 2.22087 17.0797 3.17027C18.0291 4.11967 18.5625 5.40734 18.5625 6.75H22.7812C23.005 6.75 23.2196 6.83889 23.3779 6.99713C23.5361 7.15536 23.625 7.36997 23.625 7.59375V24.4688C23.625 24.6925 23.5361 24.9071 23.3779 25.0654C23.2196 25.2236 23.005 25.3125 22.7812 25.3125H4.21875C3.99497 25.3125 3.78036 25.2236 3.62213 25.0654C3.46389 24.9071 3.375 24.6925 3.375 24.4688V7.59375C3.375 7.36997 3.46389 7.15536 3.62213 6.99713C3.78036 6.83889 3.99497 6.75 4.21875 6.75H8.4375ZM10.125 6.75H16.875C16.875 5.85489 16.5194 4.99645 15.8865 4.36351C15.2535 3.73058 14.3951 3.375 13.5 3.375C12.6049 3.375 11.7464 3.73058 11.1135 4.36351C10.4806 4.99645 10.125 5.85489 10.125 6.75V6.75Z" fill="white"/>
<path d="M5.0625 18.5625H21.9375V20.25H5.0625V18.5625Z" fill="white"/>
</svg>
