<svg width="660" height="660" viewBox="0 0 660 660" fill="none" xmlns="http://www.w3.org/2000/svg">
<rect x="137.709" y="110.709" width="383.855" height="383.855" stroke="white" stroke-width="23.4182"/>
<circle cx="234.945" cy="202.854" r="38.6909" fill="white"/>
<rect x="383.78" y="230.099" width="92.2353" height="26.3529" transform="rotate(-45 383.78 230.099)" fill="white"/>
<rect x="187.989" y="426.374" width="92.2353" height="26.3529" transform="rotate(-45 187.989 426.374)" fill="white"/>
<rect x="448.191" y="446.139" width="92.2353" height="26.3529" transform="rotate(-135 448.191 446.139)" fill="white"/>
<path d="M184.524 578.594L189.927 572.516L199.188 589.11C199.864 590.364 202.468 595.574 203.433 597.696H221.185V595.574C216.747 594.609 214.721 592.872 211.151 586.891L197.741 563.833L201.311 559.878C205.363 555.44 207.292 553.8 210.572 552.063C213.274 550.616 215.589 549.941 218.676 549.555V547.336H193.786V549.555C198.417 549.844 200.443 551.098 200.443 553.703C200.443 555.44 199.381 557.466 197.452 559.781L184.524 574.638V544.249C184.524 537.785 184.717 531.61 185.103 524.471L165.518 525.533V527.751C172.175 527.751 172.851 528.62 172.851 537.11V585.733C172.851 594.319 172.175 595.284 165.615 595.381V597.696H191.76V595.381C185.199 595.284 184.524 594.416 184.524 585.733V578.594ZM282.97 597.696V595.477C277.663 595.381 276.699 593.837 276.699 585.444V565.377C276.699 559.299 276.699 559.299 277.278 546.082L257.886 547.336V549.651C261.938 549.748 262.517 549.941 263.482 550.713C264.543 551.774 264.929 553.703 264.929 559.009V574.253C264.929 579.462 264.446 582.549 263.096 585.733C260.78 590.943 257.114 593.837 252.676 593.837C249.3 593.837 246.984 592.293 245.923 589.11C244.958 586.312 244.669 583.9 244.669 577.34C244.669 577.147 244.669 576.182 244.669 575.507L244.765 565.28C244.862 556.694 245.055 553.028 245.537 546.082L226.146 547.336V549.651C230.487 549.748 231.259 550.037 232.127 551.195C232.899 552.256 233.188 554.379 233.188 558.238C233.188 558.527 233.092 558.72 233.092 559.009L232.899 578.497V579.848C232.899 585.733 233.478 589.11 234.732 591.811C236.951 596.442 241.485 599.047 247.177 599.047C254.316 599.047 260.877 595.091 264.929 588.434C264.929 592.39 265.122 596.056 265.411 598.564L282.97 597.696ZM309.303 550.423H320.976V547.336H309.303C309.303 538.557 309.399 535.566 309.592 531.61L304.768 532.093C303.9 536.917 302.935 539.714 301.199 542.416C298.98 545.889 296.279 547.336 292.034 547.529V550.423H297.533V580.523C297.533 589.11 297.822 591.425 298.98 593.837C300.813 597.214 304.672 599.143 309.882 599.143C314.898 599.143 319.143 597.6 323.099 594.319L321.748 591.907C319.336 593.837 317.021 594.898 314.995 594.898C312.969 594.898 311.039 593.451 310.268 591.329C309.592 589.399 309.303 586.891 309.303 582.646V550.423ZM379.36 595.091C373.185 594.995 372.799 594.416 372.799 583.804C372.799 583.128 372.799 581.295 372.896 578.594L372.992 570.201L373.089 561.807C373.089 555.826 371.931 552.353 369.326 549.844C366.432 547.143 361.705 545.889 355.048 545.889C348.488 545.889 343.278 547.047 339.226 549.555C335.463 551.87 333.244 555.15 333.244 558.527C333.244 561.421 335.56 562.965 339.998 562.965C344.05 562.965 345.69 561.711 345.883 558.238C346.172 554.572 346.462 553.028 347.426 551.388C348.777 549.072 350.803 548.108 353.89 548.108C359.679 548.108 361.415 551.098 361.415 561.325V567.596C355.434 567.885 350.321 568.56 345.593 569.429C335.27 571.455 330.157 576.568 330.157 584.865C330.157 593.548 335.849 599.047 345.014 599.047C351.285 599.047 356.495 596.635 361.512 591.232C361.994 597.117 362.959 598.564 366.046 598.564C368.554 598.564 373.668 598.082 379.36 597.407V595.091ZM361.415 577.243C361.415 582.742 360.933 585.926 359.679 588.434C357.846 592.39 354.18 594.802 350.321 594.802C345.593 594.802 342.506 590.267 342.506 583.418C342.506 574.445 347.426 570.876 361.415 569.815V577.243ZM406.199 578.594L411.601 572.516L420.863 589.11C421.538 590.364 424.143 595.574 425.108 597.696H442.859V595.574C438.421 594.609 436.395 592.872 432.826 586.891L419.416 563.833L422.985 559.878C427.037 555.44 428.967 553.8 432.247 552.063C434.948 550.616 437.264 549.941 440.351 549.555V547.336H415.46V549.555C420.091 549.844 422.117 551.098 422.117 553.703C422.117 555.44 421.056 557.466 419.126 559.781L406.199 574.638V544.249C406.199 537.785 406.392 531.61 406.777 524.471L387.193 525.533V527.751C393.85 527.751 394.525 528.62 394.525 537.11V585.733C394.525 594.319 393.85 595.284 387.289 595.381V597.696H413.434V595.381C406.874 595.284 406.199 594.416 406.199 585.733V578.594ZM499.241 595.091C493.067 594.995 492.681 594.416 492.681 583.804C492.681 583.128 492.681 581.295 492.778 578.594L492.874 570.201L492.971 561.807C492.971 555.826 491.813 552.353 489.208 549.844C486.314 547.143 481.586 545.889 474.93 545.889C468.369 545.889 463.16 547.047 459.108 549.555C455.345 551.87 453.126 555.15 453.126 558.527C453.126 561.421 455.442 562.965 459.88 562.965C463.931 562.965 465.572 561.711 465.765 558.238C466.054 554.572 466.343 553.028 467.308 551.388C468.659 549.072 470.685 548.108 473.772 548.108C479.56 548.108 481.297 551.098 481.297 561.325V567.596C475.316 567.885 470.202 568.56 465.475 569.429C455.152 571.455 450.039 576.568 450.039 584.865C450.039 593.548 455.731 599.047 464.896 599.047C471.167 599.047 476.377 596.635 481.393 591.232C481.876 597.117 482.841 598.564 485.928 598.564C488.436 598.564 493.549 598.082 499.241 597.407V595.091ZM481.297 577.243C481.297 582.742 480.815 585.926 479.56 588.434C477.727 592.39 474.061 594.802 470.202 594.802C465.475 594.802 462.388 590.267 462.388 583.418C462.388 574.445 467.308 570.876 481.297 569.815V577.243Z" fill="white"/>
</svg>
